<?xml version="1.0" standalone="no"?>
<!DOCTYPE svg PUBLIC "-//W3C//DTD SVG 20010904//EN"
 "http://www.w3.org/TR/2001/REC-SVG-20010904/DTD/svg10.dtd">
<svg version="1.0" xmlns="http://www.w3.org/2000/svg"
 width="300.000000pt" height="232.000000pt" viewBox="0 0 300.000000 232.000000"
 preserveAspectRatio="xMidYMid meet">

<g transform="translate(0.000000,232.000000) scale(0.100000,-0.100000)"
fill="#000000" stroke="none">
<path d="M977 2143 c-4 -3 -7 -38 -7 -77 l0 -71 145 -242 c80 -133 145 -247
145 -253 0 -6 -52 -10 -145 -10 l-145 0 0 -275 0 -275 80 0 80 0 0 195 0 195
119 0 120 0 116 -195 c106 -176 119 -194 136 -184 11 5 90 53 177 106 86 53
189 115 229 139 39 24 76 44 82 44 5 0 20 -18 32 -40 13 -22 26 -37 30 -33 11
12 63 252 56 259 -8 9 -239 55 -245 50 -2 -3 8 -24 22 -48 l25 -44 -185 -112
c-103 -62 -187 -112 -189 -110 -1 2 -28 47 -60 100 l-57 98 56 56 c35 36 70
84 93 132 37 75 38 78 38 191 0 106 -2 121 -27 171 -53 108 -167 194 -299 225
-66 15 -408 22 -422 8z m398 -168 c76 -20 127 -54 162 -107 25 -37 28 -50 28
-127 0 -97 -14 -134 -74 -202 l-37 -42 -142 237 c-78 131 -142 242 -142 247 0
15 141 10 205 -6z"/>
<path d="M170 490 l0 -320 155 0 155 0 0 40 0 39 -112 3 -113 3 -3 278 -2 277
-40 0 -40 0 0 -320z"/>
<path d="M552 493 l3 -318 173 -3 172 -2 0 39 0 40 -132 3 -133 3 -3 98 -3 97
136 0 135 0 0 40 0 39 -132 3 -133 3 -3 98 -3 97 136 0 135 0 0 40 0 40 -175
0 -175 0 2 -317z"/>
<path d="M972 493 l3 -318 37 -3 37 -3 3 103 3 103 36 3 c37 3 37 3 101 -100
l64 -103 47 -3 c26 -2 47 0 47 4 0 3 -30 51 -66 107 l-65 100 45 42 c55 50 76
97 76 169 0 67 -9 93 -52 141 -51 59 -96 75 -216 75 l-102 0 2 -317z m213 223
c46 -20 75 -69 75 -127 0 -81 -57 -129 -155 -129 l-55 0 0 135 0 135 50 0 c28
0 66 -6 85 -14z"/>
<path d="M1440 489 l0 -320 38 3 37 3 3 103 3 103 37 -3 c35 -3 40 -8 101
-105 l63 -103 44 0 c24 0 44 4 44 9 0 5 -29 53 -64 106 l-64 98 52 51 c42 41
55 62 65 103 25 105 -18 201 -110 247 -46 23 -65 26 -151 26 l-98 0 0 -321z
m228 215 c15 -11 35 -37 46 -58 24 -49 15 -97 -28 -144 -31 -33 -39 -36 -100
-40 l-66 -4 0 137 0 137 60 -4 c39 -3 70 -11 88 -24z"/>
<path d="M1890 490 l0 -320 175 0 175 0 0 40 0 39 -132 3 -133 3 -3 98 -3 97
136 0 135 0 0 40 0 40 -135 0 -135 0 0 100 0 100 135 0 135 0 0 40 0 40 -175
0 -175 0 0 -320z"/>
<path d="M2300 770 l0 -40 70 0 70 0 2 -277 3 -278 40 0 40 0 3 278 2 277 70
0 70 0 0 40 0 40 -185 0 -185 0 0 -40z"/>
<path d="M2750 490 l0 -320 40 0 40 0 0 320 0 320 -40 0 -40 0 0 -320z"/>
</g>
</svg>
